<svg xmlns="http://www.w3.org/2000/svg" viewBox="0 0 657.4 657.4"><defs><style>.cls-1{fill:#333;}.cls-2{fill:#fff;}</style></defs><g id="Laag_2" data-name="Laag 2"><g id="OBJECTS"><path class="cls-1" d="M613.41,164.51c90.65,157.24,36.71,358.23-120.52,448.89S134.66,650.08,44,492.86,7.33,134.65,164.54,44,522.75,7.27,613.41,164.51Z"/><path class="cls-2" d="M58.58,369c-9.81-26.86-1.83-101.85,6.9-129.47Q49.34,236,34,233.87A310.39,310.39,0,0,0,43.7,450.6C43.41,427.72,46.1,397.28,58.58,369Zm102.9,39.13c1.1,3.3,2.88,8.59,5.47,15.24a349.34,349.34,0,0,0,22.8,48.06c12.71,22,26.92,40.38,42.31,54.53,33.92,4.43,76.28,4.74,129.39.9,33-29.84,55.28-88.51,63.38-112.51.81-2.41,1.55-4.59,2.16-6.54-2.7-4.83-5.53-9.82-8.34-14.73-12.77-22.14-25-41.17-36.83-59.57-7.21-11.2-14.09-21.78-20.83-32.81-2.22-.43-6.13-1.18-11.35-2-12.43-2.06-24.89-3.55-37-4.61-25.49-2.13-61.67-2.89-90,5.65-21.2,31.68-45,68.55-61.53,107.24C161.22,407.3,161.37,407.7,161.48,408.11ZM43.69,450.62c.21.43.39.86.55,1.27-.16-.43-.35-.87-.54-1.29ZM374.5,86c-41.22-3.11-85.88-5.33-133.31-.27-1.67,1.76-4.41,4.71-7.82,8.58-5.67,6.33-14.31,16.46-23.53,28.71-14.5,19.21-33.32,47.69-41.53,75.19,3.12,5.5,6.65,11.7,10.82,18.93,5.28,9.15,10.9,18.77,16.61,28.6,8.82,15.16,17.87,30.7,26.24,45.38,48.7-13.85,115.71-3.34,138.71,1,16.92-25.9,36.4-51.57,55.16-76.44,5.72-7.54,11.6-15.3,17.35-23-4-19.33-13.87-43.85-26.58-65.91l0,0,1.48-.87-.06-.08-1.49.85C395.71,107.88,384.11,93.15,374.5,86ZM224.4,530.2c-15.25-14.48-29.32-32.84-41.86-54.61a358.09,358.09,0,0,1-28.93-64.71C124,407.68,80,388.52,64.49,376.45c-14.09,34.94-13.56,72.3-11.39,94.22,2.35,4.67,4.87,9.29,7.49,13.85a310.31,310.31,0,0,0,78.46,90.2c3.35,1.32,6.67,2.6,10,3.8a298.78,298.78,0,0,0,55.68,14.55C202.68,577.15,209.16,556.52,224.4,530.2ZM36.59,226a.74.74,0,0,0,.07-.21h0A.74.74,0,0,1,36.59,226ZM161,193.69C176.37,145,221.57,94.4,234.3,80.91c-4.71-9.2-13.22-26.86-17.1-41.79a316.34,316.34,0,0,0-42.49,20.37,310,310,0,0,0-138,166.31c10.66,1.58,21.61,3.55,32.72,6C94.59,206.46,136.58,197.07,161,193.69ZM622.61,435.41l0,0c-.25.6-.4,1.14-.62,1.7C622.19,436.56,622.38,436,622.61,435.41Zm-71.37-188c7.81,24,6.29,102.92.57,127.44,22.79,26.72,38.15,53.76,44.82,78.67,4.9-3.4,9.84-6.89,14.32-10s8.38-5.85,11.64-8.13a310.65,310.65,0,0,0-6.31-228.75,117.19,117.19,0,0,1-18.82-13.3C587.92,207.05,569.31,230.64,551.24,247.44ZM381.54,81c10.15,8.27,21.48,22.88,32.27,41.57,13.07,22.64,23.22,47.86,27.46,67.87,18.9,5.62,81.22,31.45,104.61,50.55,18.38-17.18,38.2-42.49,46.93-55.72-2.75-10.52-4.66-21.5-6.7-33.11a.43.43,0,0,1,0-.16A310.28,310.28,0,0,0,432.86,35.32C413.05,48.24,392.71,67.37,381.54,81ZM411.7,603c-21.36,17.65-48.14,30.15-79.8,37.31a309.78,309.78,0,0,0,153.72-41.64A303.26,303.26,0,0,0,518.26,577C494.8,588.92,454,605.37,411.7,603ZM164.18,592.31a312,312,0,0,0,95.57,39.85,193.52,193.52,0,0,1-51.09-30.1A277.73,277.73,0,0,1,164.18,592.31ZM546.59,381.58c-34.79,18.65-74.37,29.19-112,29.88-7.28,22.5-30.27,86.39-65.86,120,.9,1.88,2.09,4.06,3.54,6.55,10,17.33,30,45.13,39,56.54,50.69,3.22,100.9-23.21,115.17-31.44,1.39-.79,2.46-1.47,3.36-2,25.39-26.31,49.63-71.22,59.94-100.76-3.06-13.52-8.8-27.84-17.25-42.48A255,255,0,0,0,546.59,381.58Z"/></g></g></svg>